0
SECTION
2
HEADER
9
$INSUNITS
70
4
0
ENDSEC
0
SECTION
2
TABLES
0
TABLE
2
LTYPE
0
LTYPE
72
65
70
0
2
CONTINUOUS
3
______
73
0
40
0
0
LTYPE
72
65
70
0
2
DASHED
3
_ _ _ 
73
2
40
7.5
49
5
49
-2.5
0
LTYPE
72
65
70
0
2
DOTTED
3
. . . 
73
2
40
1.5
49
0.5
49
-1
0
ENDTAB
0
TABLE
2
LAYER
0
ENDTAB
0
ENDSEC
0
SECTION
2
ENTITIES
0
LINE
8
0
6
CONTINUOUS
10
-47.484406
20
-29.2394616
11
-46.9354829
21
74.9355384
0
LINE
8
0
6
CONTINUOUS
10
-44.9355108
20
76.925
11
88.5
21
76.925
0
LINE
8
0
6
CONTINUOUS
10
90.5
20
74.925
11
90.5
21
-11.4913941
0
LINE
8
0
6
CONTINUOUS
10
90.4999259
20
-11.5086087
11
90.347067
21
-29.2672146
0
LINE
8
0
6
CONTINUOUS
10
88.3471411
20
-31.25
11
-45.4844338
21
-31.25
0
ARC
8
0
6
CONTINUOUS
10
-44.9355108
20
74.925
40
2
50
90
51
179.6980957
0
ARC
8
0
6
CONTINUOUS
10
88.5
20
74.925
40
2
50
0
51
90
0
ARC
8
0
6
CONTINUOUS
10
88.5
20
-11.4913941
40
2
50
359.506832
51
0
0
ARC
8
0
6
CONTINUOUS
10
88.3471411
20
-29.25
40
2
50
270
51
359.506832
0
ARC
8
0
6
CONTINUOUS
10
-45.4844338
20
-29.25
40
2
50
179.6980957
51
270
0
ENDSEC
0
EOF