0
SECTION
2
HEADER
9
$INSUNITS
70
4
0
ENDSEC
0
SECTION
2
TABLES
0
TABLE
2
LTYPE
0
LTYPE
72
65
70
0
2
CONTINUOUS
3
______
73
0
40
0
0
LTYPE
72
65
70
0
2
DASHED
3
_ _ _ 
73
2
40
7.5
49
5
49
-2.5
0
LTYPE
72
65
70
0
2
DOTTED
3
. . . 
73
2
40
1.5
49
0.5
49
-1
0
ENDTAB
0
TABLE
2
LAYER
0
ENDTAB
0
ENDSEC
0
SECTION
2
ENTITIES
0
LINE
8
0
6
CONTINUOUS
10
260
20
-11.4989622
11
260
21
74.925
0
LINE
8
0
6
CONTINUOUS
10
258
20
76.925
11
120.5
21
76.925
0
LINE
8
0
6
CONTINUOUS
10
118.5
20
-29.25
11
118.5
21
74.925
0
LINE
8
0
6
CONTINUOUS
10
120.5
20
-31.25
11
258.0179736
21
-31.25
0
LINE
8
0
6
CONTINUOUS
10
260.0179726
20
-29.2479746
11
260.000001
21
-11.5009876
0
ARC
8
0
6
CONTINUOUS
10
258
20
74.925
40
2
50
0
51
90
0
ARC
8
0
6
CONTINUOUS
10
120.5
20
74.925
40
2
50
90
51
180
0
ARC
8
0
6
CONTINUOUS
10
120.5
20
-29.25
40
2
50
180
51
270
0
ARC
8
0
6
CONTINUOUS
10
258.0179736
20
-29.25
40
2
50
270
51
0.0580234
0
ARC
8
0
6
CONTINUOUS
10
262
20
-11.4989622
40
2
50
180
51
180.0580234
0
LINE
8
0
6
CONTINUOUS
10
123
20
-7
11
137
21
-7
0
LINE
8
0
6
CONTINUOUS
10
137
20
-7
11
137
21
7
0
LINE
8
0
6
CONTINUOUS
10
137
20
7
11
123
21
7
0
LINE
8
0
6
CONTINUOUS
10
123
20
7
11
123
21
-7
0
LINE
8
0
6
CONTINUOUS
10
123
20
12.75
11
137
21
12.75
0
LINE
8
0
6
CONTINUOUS
10
137
20
12.75
11
137
21
26.75
0
LINE
8
0
6
CONTINUOUS
10
137
20
26.75
11
123
21
26.75
0
LINE
8
0
6
CONTINUOUS
10
123
20
26.75
11
123
21
12.75
0
LINE
8
0
6
CONTINUOUS
10
123
20
32.5
11
137
21
32.5
0
LINE
8
0
6
CONTINUOUS
10
137
20
32.5
11
137
21
46.5
0
LINE
8
0
6
CONTINUOUS
10
137
20
46.5
11
123
21
46.5
0
LINE
8
0
6
CONTINUOUS
10
123
20
46.5
11
123
21
32.5
0
LINE
8
0
6
CONTINUOUS
10
123
20
52.25
11
137
21
52.25
0
LINE
8
0
6
CONTINUOUS
10
137
20
52.25
11
137
21
66.25
0
LINE
8
0
6
CONTINUOUS
10
137
20
66.25
11
123
21
66.25
0
LINE
8
0
6
CONTINUOUS
10
123
20
66.25
11
123
21
52.25
0
LINE
8
0
6
CONTINUOUS
10
142.75
20
-4
11
156.75
21
-4
0
LINE
8
0
6
CONTINUOUS
10
156.75
20
-4
11
156.75
21
10
0
LINE
8
0
6
CONTINUOUS
10
156.75
20
10
11
142.75
21
10
0
LINE
8
0
6
CONTINUOUS
10
142.75
20
10
11
142.75
21
-4
0
LINE
8
0
6
CONTINUOUS
10
142.75
20
15.75
11
156.75
21
15.75
0
LINE
8
0
6
CONTINUOUS
10
156.75
20
15.75
11
156.75
21
29.75
0
LINE
8
0
6
CONTINUOUS
10
156.75
20
29.75
11
142.75
21
29.75
0
LINE
8
0
6
CONTINUOUS
10
142.75
20
29.75
11
142.75
21
15.75
0
LINE
8
0
6
CONTINUOUS
10
142.75
20
35.5
11
156.75
21
35.5
0
LINE
8
0
6
CONTINUOUS
10
156.75
20
35.5
11
156.75
21
49.5
0
LINE
8
0
6
CONTINUOUS
10
156.75
20
49.5
11
142.75
21
49.5
0
LINE
8
0
6
CONTINUOUS
10
142.75
20
49.5
11
142.75
21
35.5
0
LINE
8
0
6
CONTINUOUS
10
142.75
20
55.25
11
156.75
21
55.25
0
LINE
8
0
6
CONTINUOUS
10
156.75
20
55.25
11
156.75
21
69.25
0
LINE
8
0
6
CONTINUOUS
10
156.75
20
69.25
11
142.75
21
69.25
0
LINE
8
0
6
CONTINUOUS
10
142.75
20
69.25
11
142.75
21
55.25
0
LINE
8
0
6
CONTINUOUS
10
162.5
20
-1
11
176.5
21
-1
0
LINE
8
0
6
CONTINUOUS
10
176.5
20
-1
11
176.5
21
13
0
LINE
8
0
6
CONTINUOUS
10
176.5
20
13
11
162.5
21
13
0
LINE
8
0
6
CONTINUOUS
10
162.5
20
13
11
162.5
21
-1
0
LINE
8
0
6
CONTINUOUS
10
162.5
20
18.75
11
176.5
21
18.75
0
LINE
8
0
6
CONTINUOUS
10
176.5
20
18.75
11
176.5
21
32.75
0
LINE
8
0
6
CONTINUOUS
10
176.5
20
32.75
11
162.5
21
32.75
0
LINE
8
0
6
CONTINUOUS
10
162.5
20
32.75
11
162.5
21
18.75
0
LINE
8
0
6
CONTINUOUS
10
162.5
20
38.5
11
176.5
21
38.5
0
LINE
8
0
6
CONTINUOUS
10
176.5
20
38.5
11
176.5
21
52.5
0
LINE
8
0
6
CONTINUOUS
10
176.5
20
52.5
11
162.5
21
52.5
0
LINE
8
0
6
CONTINUOUS
10
162.5
20
52.5
11
162.5
21
38.5
0
LINE
8
0
6
CONTINUOUS
10
162.5
20
58.25
11
176.5
21
58.25
0
LINE
8
0
6
CONTINUOUS
10
176.5
20
58.25
11
176.5
21
72.25
0
LINE
8
0
6
CONTINUOUS
10
176.5
20
72.25
11
162.5
21
72.25
0
LINE
8
0
6
CONTINUOUS
10
162.5
20
72.25
11
162.5
21
58.25
0
LINE
8
0
6
CONTINUOUS
10
182.25
20
-4
11
196.25
21
-4
0
LINE
8
0
6
CONTINUOUS
10
196.25
20
-4
11
196.25
21
10
0
LINE
8
0
6
CONTINUOUS
10
196.25
20
10
11
182.25
21
10
0
LINE
8
0
6
CONTINUOUS
10
182.25
20
10
11
182.25
21
-4
0
LINE
8
0
6
CONTINUOUS
10
182.25
20
15.75
11
196.25
21
15.75
0
LINE
8
0
6
CONTINUOUS
10
196.25
20
15.75
11
196.25
21
29.75
0
LINE
8
0
6
CONTINUOUS
10
196.25
20
29.75
11
182.25
21
29.75
0
LINE
8
0
6
CONTINUOUS
10
182.25
20
29.75
11
182.25
21
15.75
0
LINE
8
0
6
CONTINUOUS
10
182.25
20
35.5
11
196.25
21
35.5
0
LINE
8
0
6
CONTINUOUS
10
196.25
20
35.5
11
196.25
21
49.5
0
LINE
8
0
6
CONTINUOUS
10
196.25
20
49.5
11
182.25
21
49.5
0
LINE
8
0
6
CONTINUOUS
10
182.25
20
49.5
11
182.25
21
35.5
0
LINE
8
0
6
CONTINUOUS
10
182.25
20
55.25
11
196.25
21
55.25
0
LINE
8
0
6
CONTINUOUS
10
196.25
20
55.25
11
196.25
21
69.25
0
LINE
8
0
6
CONTINUOUS
10
196.25
20
69.25
11
182.25
21
69.25
0
LINE
8
0
6
CONTINUOUS
10
182.25
20
69.25
11
182.25
21
55.25
0
LINE
8
0
6
CONTINUOUS
10
202
20
-7
11
216
21
-7
0
LINE
8
0
6
CONTINUOUS
10
216
20
-7
11
216
21
7
0
LINE
8
0
6
CONTINUOUS
10
216
20
7
11
202
21
7
0
LINE
8
0
6
CONTINUOUS
10
202
20
7
11
202
21
-7
0
LINE
8
0
6
CONTINUOUS
10
202
20
12.75
11
216
21
12.75
0
LINE
8
0
6
CONTINUOUS
10
216
20
12.75
11
216
21
26.75
0
LINE
8
0
6
CONTINUOUS
10
216
20
26.75
11
202
21
26.75
0
LINE
8
0
6
CONTINUOUS
10
202
20
26.75
11
202
21
12.75
0
LINE
8
0
6
CONTINUOUS
10
202
20
32.5
11
216
21
32.5
0
LINE
8
0
6
CONTINUOUS
10
216
20
32.5
11
216
21
46.5
0
LINE
8
0
6
CONTINUOUS
10
216
20
46.5
11
202
21
46.5
0
LINE
8
0
6
CONTINUOUS
10
202
20
46.5
11
202
21
32.5
0
LINE
8
0
6
CONTINUOUS
10
202
20
52.25
11
216
21
52.25
0
LINE
8
0
6
CONTINUOUS
10
216
20
52.25
11
216
21
66.25
0
LINE
8
0
6
CONTINUOUS
10
216
20
66.25
11
202
21
66.25
0
LINE
8
0
6
CONTINUOUS
10
202
20
66.25
11
202
21
52.25
0
LINE
8
0
6
CONTINUOUS
10
221.75
20
-7
11
235.75
21
-7
0
LINE
8
0
6
CONTINUOUS
10
235.75
20
-7
11
235.75
21
7
0
LINE
8
0
6
CONTINUOUS
10
235.75
20
7
11
221.75
21
7
0
LINE
8
0
6
CONTINUOUS
10
221.75
20
7
11
221.75
21
-7
0
LINE
8
0
6
CONTINUOUS
10
221.75
20
12.75
11
235.75
21
12.75
0
LINE
8
0
6
CONTINUOUS
10
235.75
20
12.75
11
235.75
21
26.75
0
LINE
8
0
6
CONTINUOUS
10
235.75
20
26.75
11
221.75
21
26.75
0
LINE
8
0
6
CONTINUOUS
10
221.75
20
26.75
11
221.75
21
12.75
0
LINE
8
0
6
CONTINUOUS
10
221.75
20
32.5
11
235.75
21
32.5
0
LINE
8
0
6
CONTINUOUS
10
235.75
20
32.5
11
235.75
21
46.5
0
LINE
8
0
6
CONTINUOUS
10
235.75
20
46.5
11
221.75
21
46.5
0
LINE
8
0
6
CONTINUOUS
10
221.75
20
46.5
11
221.75
21
32.5
0
LINE
8
0
6
CONTINUOUS
10
221.75
20
52.25
11
235.75
21
52.25
0
LINE
8
0
6
CONTINUOUS
10
235.75
20
52.25
11
235.75
21
66.25
0
LINE
8
0
6
CONTINUOUS
10
235.75
20
66.25
11
221.75
21
66.25
0
LINE
8
0
6
CONTINUOUS
10
221.75
20
66.25
11
221.75
21
52.25
0
LINE
8
0
6
CONTINUOUS
10
241.5
20
-7
11
255.5
21
-7
0
LINE
8
0
6
CONTINUOUS
10
255.5
20
-7
11
255.5
21
7
0
LINE
8
0
6
CONTINUOUS
10
255.5
20
7
11
241.5
21
7
0
LINE
8
0
6
CONTINUOUS
10
241.5
20
7
11
241.5
21
-7
0
LINE
8
0
6
CONTINUOUS
10
241.5
20
12.75
11
255.5
21
12.75
0
LINE
8
0
6
CONTINUOUS
10
255.5
20
12.75
11
255.5
21
26.75
0
LINE
8
0
6
CONTINUOUS
10
255.5
20
26.75
11
241.5
21
26.75
0
LINE
8
0
6
CONTINUOUS
10
241.5
20
26.75
11
241.5
21
12.75
0
LINE
8
0
6
CONTINUOUS
10
241.5
20
32.5
11
255.5
21
32.5
0
LINE
8
0
6
CONTINUOUS
10
255.5
20
32.5
11
255.5
21
46.5
0
LINE
8
0
6
CONTINUOUS
10
255.5
20
46.5
11
241.5
21
46.5
0
LINE
8
0
6
CONTINUOUS
10
241.5
20
46.5
11
241.5
21
32.5
0
LINE
8
0
6
CONTINUOUS
10
241.5
20
52.25
11
255.5
21
52.25
0
LINE
8
0
6
CONTINUOUS
10
255.5
20
52.25
11
255.5
21
66.25
0
LINE
8
0
6
CONTINUOUS
10
255.5
20
66.25
11
241.5
21
66.25
0
LINE
8
0
6
CONTINUOUS
10
241.5
20
66.25
11
241.5
21
52.25
0
LINE
8
0
6
CONTINUOUS
10
137.25
20
-26.75
11
151.25
21
-26.75
0
LINE
8
0
6
CONTINUOUS
10
151.25
20
-26.75
11
151.25
21
-12.75
0
LINE
8
0
6
CONTINUOUS
10
151.25
20
-12.75
11
137.25
21
-12.75
0
LINE
8
0
6
CONTINUOUS
10
137.25
20
-12.75
11
137.25
21
-26.75
0
LINE
8
0
6
CONTINUOUS
10
182.27
20
-26.75
11
196.27
21
-26.75
0
LINE
8
0
6
CONTINUOUS
10
196.27
20
-26.75
11
196.27
21
-12.75
0
LINE
8
0
6
CONTINUOUS
10
196.27
20
-12.75
11
182.27
21
-12.75
0
LINE
8
0
6
CONTINUOUS
10
182.27
20
-12.75
11
182.27
21
-26.75
0
LINE
8
0
6
CONTINUOUS
10
202.02
20
-26.75
11
216.02
21
-26.75
0
LINE
8
0
6
CONTINUOUS
10
216.02
20
-26.75
11
216.02
21
-12.75
0
LINE
8
0
6
CONTINUOUS
10
216.02
20
-12.75
11
202.02
21
-12.75
0
LINE
8
0
6
CONTINUOUS
10
202.02
20
-12.75
11
202.02
21
-26.75
0
LINE
8
0
6
CONTINUOUS
10
221.77
20
-26.75
11
235.77
21
-26.75
0
LINE
8
0
6
CONTINUOUS
10
235.77
20
-26.75
11
235.77
21
-12.75
0
LINE
8
0
6
CONTINUOUS
10
235.77
20
-12.75
11
221.77
21
-12.75
0
LINE
8
0
6
CONTINUOUS
10
221.77
20
-12.75
11
221.77
21
-26.75
0
LINE
8
0
6
CONTINUOUS
10
241.52
20
-26.75
11
255.52
21
-26.75
0
LINE
8
0
6
CONTINUOUS
10
255.52
20
-26.75
11
255.52
21
-12.75
0
LINE
8
0
6
CONTINUOUS
10
255.52
20
-12.75
11
241.52
21
-12.75
0
LINE
8
0
6
CONTINUOUS
10
241.52
20
-12.75
11
241.52
21
-26.75
0
CIRCLE
8
0
6
CONTINUOUS
10
130
20
0
40
1
0
CIRCLE
8
0
6
CONTINUOUS
10
130
20
19.75
40
1
0
CIRCLE
8
0
6
CONTINUOUS
10
130
20
39.5
40
1
0
CIRCLE
8
0
6
CONTINUOUS
10
130
20
59.25
40
1
0
CIRCLE
8
0
6
CONTINUOUS
10
149.75
20
3
40
1
0
CIRCLE
8
0
6
CONTINUOUS
10
149.75
20
22.75
40
1
0
CIRCLE
8
0
6
CONTINUOUS
10
149.75
20
42.5
40
1
0
CIRCLE
8
0
6
CONTINUOUS
10
149.75
20
62.25
40
1
0
CIRCLE
8
0
6
CONTINUOUS
10
169.5
20
6
40
1
0
CIRCLE
8
0
6
CONTINUOUS
10
169.5
20
25.75
40
1
0
CIRCLE
8
0
6
CONTINUOUS
10
169.5
20
45.5
40
1
0
CIRCLE
8
0
6
CONTINUOUS
10
169.5
20
65.25
40
1
0
CIRCLE
8
0
6
CONTINUOUS
10
189.25
20
3
40
1
0
CIRCLE
8
0
6
CONTINUOUS
10
189.25
20
22.75
40
1
0
CIRCLE
8
0
6
CONTINUOUS
10
189.25
20
42.5
40
1
0
CIRCLE
8
0
6
CONTINUOUS
10
189.25
20
62.25
40
1
0
CIRCLE
8
0
6
CONTINUOUS
10
209
20
0
40
1
0
CIRCLE
8
0
6
CONTINUOUS
10
209
20
19.75
40
1
0
CIRCLE
8
0
6
CONTINUOUS
10
209
20
39.5
40
1
0
CIRCLE
8
0
6
CONTINUOUS
10
209
20
59.25
40
1
0
CIRCLE
8
0
6
CONTINUOUS
10
228.75
20
0
40
1
0
CIRCLE
8
0
6
CONTINUOUS
10
228.75
20
19.75
40
1
0
CIRCLE
8
0
6
CONTINUOUS
10
228.75
20
39.5
40
1
0
CIRCLE
8
0
6
CONTINUOUS
10
228.75
20
59.25
40
1
0
CIRCLE
8
0
6
CONTINUOUS
10
248.5
20
0
40
1
0
CIRCLE
8
0
6
CONTINUOUS
10
248.5
20
19.75
40
1
0
CIRCLE
8
0
6
CONTINUOUS
10
248.5
20
39.5
40
1
0
CIRCLE
8
0
6
CONTINUOUS
10
248.5
20
59.25
40
1
0
CIRCLE
8
0
6
CONTINUOUS
10
144.25
20
-19.75
40
1
0
CIRCLE
8
0
6
CONTINUOUS
10
189.27
20
-19.75
40
1
0
CIRCLE
8
0
6
CONTINUOUS
10
209.02
20
-19.75
40
1
0
CIRCLE
8
0
6
CONTINUOUS
10
228.77
20
-19.75
40
1
0
CIRCLE
8
0
6
CONTINUOUS
10
248.52
20
-19.75
40
1
0
ENDSEC
0
EOF