0
SECTION
2
HEADER
9
$INSUNITS
70
4
0
ENDSEC
0
SECTION
2
TABLES
0
TABLE
2
LTYPE
0
LTYPE
72
65
70
0
2
CONTINUOUS
3
______
73
0
40
0
0
LTYPE
72
65
70
0
2
DASHED
3
_ _ _ 
73
2
40
7.5
49
5
49
-2.5
0
LTYPE
72
65
70
0
2
DOTTED
3
. . . 
73
2
40
1.5
49
0.5
49
-1
0
ENDTAB
0
TABLE
2
LAYER
0
ENDTAB
0
ENDSEC
0
SECTION
2
ENTITIES
0
LINE
8
0
6
CONTINUOUS
10
-47.484406
20
-29.2394616
11
-46.9354829
21
74.9355384
0
LINE
8
0
6
CONTINUOUS
10
-44.9355108
20
76.925
11
88.5
21
76.925
0
LINE
8
0
6
CONTINUOUS
10
90.5
20
74.925
11
90.5
21
-11.4913941
0
LINE
8
0
6
CONTINUOUS
10
90.4999259
20
-11.5086087
11
90.347067
21
-29.2672146
0
LINE
8
0
6
CONTINUOUS
10
88.3471411
20
-31.25
11
-45.4844338
21
-31.25
0
ARC
8
0
6
CONTINUOUS
10
-44.9355108
20
74.925
40
2
50
90
51
179.6980957
0
ARC
8
0
6
CONTINUOUS
10
88.5
20
74.925
40
2
50
0
51
90
0
ARC
8
0
6
CONTINUOUS
10
88.5
20
-11.4913941
40
2
50
359.506832
51
0
0
ARC
8
0
6
CONTINUOUS
10
88.3471411
20
-29.25
40
2
50
270
51
359.506832
0
ARC
8
0
6
CONTINUOUS
10
-45.4844338
20
-29.25
40
2
50
179.6980957
51
270
0
LINE
8
0
6
CONTINUOUS
10
-7
20
-7
11
7
21
-7
0
LINE
8
0
6
CONTINUOUS
10
7
20
-7
11
7
21
7
0
LINE
8
0
6
CONTINUOUS
10
7
20
7
11
-7
21
7
0
LINE
8
0
6
CONTINUOUS
10
-7
20
7
11
-7
21
-7
0
LINE
8
0
6
CONTINUOUS
10
-7
20
12.75
11
7
21
12.75
0
LINE
8
0
6
CONTINUOUS
10
7
20
12.75
11
7
21
26.75
0
LINE
8
0
6
CONTINUOUS
10
7
20
26.75
11
-7
21
26.75
0
LINE
8
0
6
CONTINUOUS
10
-7
20
26.75
11
-7
21
12.75
0
LINE
8
0
6
CONTINUOUS
10
-7
20
32.5
11
7
21
32.5
0
LINE
8
0
6
CONTINUOUS
10
7
20
32.5
11
7
21
46.5
0
LINE
8
0
6
CONTINUOUS
10
7
20
46.5
11
-7
21
46.5
0
LINE
8
0
6
CONTINUOUS
10
-7
20
46.5
11
-7
21
32.5
0
LINE
8
0
6
CONTINUOUS
10
-7
20
52.25
11
7
21
52.25
0
LINE
8
0
6
CONTINUOUS
10
7
20
52.25
11
7
21
66.25
0
LINE
8
0
6
CONTINUOUS
10
7
20
66.25
11
-7
21
66.25
0
LINE
8
0
6
CONTINUOUS
10
-7
20
66.25
11
-7
21
52.25
0
LINE
8
0
6
CONTINUOUS
10
12.75
20
-4
11
26.75
21
-4
0
LINE
8
0
6
CONTINUOUS
10
26.75
20
-4
11
26.75
21
10
0
LINE
8
0
6
CONTINUOUS
10
26.75
20
10
11
12.75
21
10
0
LINE
8
0
6
CONTINUOUS
10
12.75
20
10
11
12.75
21
-4
0
LINE
8
0
6
CONTINUOUS
10
12.75
20
15.75
11
26.75
21
15.75
0
LINE
8
0
6
CONTINUOUS
10
26.75
20
15.75
11
26.75
21
29.75
0
LINE
8
0
6
CONTINUOUS
10
26.75
20
29.75
11
12.75
21
29.75
0
LINE
8
0
6
CONTINUOUS
10
12.75
20
29.75
11
12.75
21
15.75
0
LINE
8
0
6
CONTINUOUS
10
12.75
20
35.5
11
26.75
21
35.5
0
LINE
8
0
6
CONTINUOUS
10
26.75
20
35.5
11
26.75
21
49.5
0
LINE
8
0
6
CONTINUOUS
10
26.75
20
49.5
11
12.75
21
49.5
0
LINE
8
0
6
CONTINUOUS
10
12.75
20
49.5
11
12.75
21
35.5
0
LINE
8
0
6
CONTINUOUS
10
12.75
20
55.25
11
26.75
21
55.25
0
LINE
8
0
6
CONTINUOUS
10
26.75
20
55.25
11
26.75
21
69.25
0
LINE
8
0
6
CONTINUOUS
10
26.75
20
69.25
11
12.75
21
69.25
0
LINE
8
0
6
CONTINUOUS
10
12.75
20
69.25
11
12.75
21
55.25
0
LINE
8
0
6
CONTINUOUS
10
32.5
20
-1
11
46.5
21
-1
0
LINE
8
0
6
CONTINUOUS
10
46.5
20
-1
11
46.5
21
13
0
LINE
8
0
6
CONTINUOUS
10
46.5
20
13
11
32.5
21
13
0
LINE
8
0
6
CONTINUOUS
10
32.5
20
13
11
32.5
21
-1
0
LINE
8
0
6
CONTINUOUS
10
32.5
20
18.75
11
46.5
21
18.75
0
LINE
8
0
6
CONTINUOUS
10
46.5
20
18.75
11
46.5
21
32.75
0
LINE
8
0
6
CONTINUOUS
10
46.5
20
32.75
11
32.5
21
32.75
0
LINE
8
0
6
CONTINUOUS
10
32.5
20
32.75
11
32.5
21
18.75
0
LINE
8
0
6
CONTINUOUS
10
32.5
20
38.5
11
46.5
21
38.5
0
LINE
8
0
6
CONTINUOUS
10
46.5
20
38.5
11
46.5
21
52.5
0
LINE
8
0
6
CONTINUOUS
10
46.5
20
52.5
11
32.5
21
52.5
0
LINE
8
0
6
CONTINUOUS
10
32.5
20
52.5
11
32.5
21
38.5
0
LINE
8
0
6
CONTINUOUS
10
32.5
20
58.25
11
46.5
21
58.25
0
LINE
8
0
6
CONTINUOUS
10
46.5
20
58.25
11
46.5
21
72.25
0
LINE
8
0
6
CONTINUOUS
10
46.5
20
72.25
11
32.5
21
72.25
0
LINE
8
0
6
CONTINUOUS
10
32.5
20
72.25
11
32.5
21
58.25
0
LINE
8
0
6
CONTINUOUS
10
52.25
20
-4
11
66.25
21
-4
0
LINE
8
0
6
CONTINUOUS
10
66.25
20
-4
11
66.25
21
10
0
LINE
8
0
6
CONTINUOUS
10
66.25
20
10
11
52.25
21
10
0
LINE
8
0
6
CONTINUOUS
10
52.25
20
10
11
52.25
21
-4
0
LINE
8
0
6
CONTINUOUS
10
52.25
20
15.75
11
66.25
21
15.75
0
LINE
8
0
6
CONTINUOUS
10
66.25
20
15.75
11
66.25
21
29.75
0
LINE
8
0
6
CONTINUOUS
10
66.25
20
29.75
11
52.25
21
29.75
0
LINE
8
0
6
CONTINUOUS
10
52.25
20
29.75
11
52.25
21
15.75
0
LINE
8
0
6
CONTINUOUS
10
52.25
20
35.5
11
66.25
21
35.5
0
LINE
8
0
6
CONTINUOUS
10
66.25
20
35.5
11
66.25
21
49.5
0
LINE
8
0
6
CONTINUOUS
10
66.25
20
49.5
11
52.25
21
49.5
0
LINE
8
0
6
CONTINUOUS
10
52.25
20
49.5
11
52.25
21
35.5
0
LINE
8
0
6
CONTINUOUS
10
52.25
20
55.25
11
66.25
21
55.25
0
LINE
8
0
6
CONTINUOUS
10
66.25
20
55.25
11
66.25
21
69.25
0
LINE
8
0
6
CONTINUOUS
10
66.25
20
69.25
11
52.25
21
69.25
0
LINE
8
0
6
CONTINUOUS
10
52.25
20
69.25
11
52.25
21
55.25
0
LINE
8
0
6
CONTINUOUS
10
72
20
-7
11
86
21
-7
0
LINE
8
0
6
CONTINUOUS
10
86
20
-7
11
86
21
7
0
LINE
8
0
6
CONTINUOUS
10
86
20
7
11
72
21
7
0
LINE
8
0
6
CONTINUOUS
10
72
20
7
11
72
21
-7
0
LINE
8
0
6
CONTINUOUS
10
72
20
12.75
11
86
21
12.75
0
LINE
8
0
6
CONTINUOUS
10
86
20
12.75
11
86
21
26.75
0
LINE
8
0
6
CONTINUOUS
10
86
20
26.75
11
72
21
26.75
0
LINE
8
0
6
CONTINUOUS
10
72
20
26.75
11
72
21
12.75
0
LINE
8
0
6
CONTINUOUS
10
72
20
32.5
11
86
21
32.5
0
LINE
8
0
6
CONTINUOUS
10
86
20
32.5
11
86
21
46.5
0
LINE
8
0
6
CONTINUOUS
10
86
20
46.5
11
72
21
46.5
0
LINE
8
0
6
CONTINUOUS
10
72
20
46.5
11
72
21
32.5
0
LINE
8
0
6
CONTINUOUS
10
72
20
52.25
11
86
21
52.25
0
LINE
8
0
6
CONTINUOUS
10
86
20
52.25
11
86
21
66.25
0
LINE
8
0
6
CONTINUOUS
10
86
20
66.25
11
72
21
66.25
0
LINE
8
0
6
CONTINUOUS
10
72
20
66.25
11
72
21
52.25
0
LINE
8
0
6
CONTINUOUS
10
-36.25
20
-7
11
-22.25
21
-7
0
LINE
8
0
6
CONTINUOUS
10
-22.25
20
-7
11
-22.25
21
7
0
LINE
8
0
6
CONTINUOUS
10
-22.25
20
7
11
-36.25
21
7
0
LINE
8
0
6
CONTINUOUS
10
-36.25
20
7
11
-36.25
21
-7
0
LINE
8
0
6
CONTINUOUS
10
-36.25
20
12.75
11
-22.25
21
12.75
0
LINE
8
0
6
CONTINUOUS
10
-22.25
20
12.75
11
-22.25
21
26.75
0
LINE
8
0
6
CONTINUOUS
10
-22.25
20
26.75
11
-36.25
21
26.75
0
LINE
8
0
6
CONTINUOUS
10
-36.25
20
26.75
11
-36.25
21
12.75
0
LINE
8
0
6
CONTINUOUS
10
-41
20
32.5
11
-27
21
32.5
0
LINE
8
0
6
CONTINUOUS
10
-27
20
32.5
11
-27
21
46.5
0
LINE
8
0
6
CONTINUOUS
10
-27
20
46.5
11
-41
21
46.5
0
LINE
8
0
6
CONTINUOUS
10
-41
20
46.5
11
-41
21
32.5
0
LINE
8
0
6
CONTINUOUS
10
-26.75
20
52.25
11
-12.75
21
52.25
0
LINE
8
0
6
CONTINUOUS
10
-12.75
20
52.25
11
-12.75
21
66.25
0
LINE
8
0
6
CONTINUOUS
10
-12.75
20
66.25
11
-26.75
21
66.25
0
LINE
8
0
6
CONTINUOUS
10
-26.75
20
66.25
11
-26.75
21
52.25
0
LINE
8
0
6
CONTINUOUS
10
-42.995
20
-26.75
11
-28.995
21
-26.75
0
LINE
8
0
6
CONTINUOUS
10
-28.995
20
-26.75
11
-28.995
21
-12.75
0
LINE
8
0
6
CONTINUOUS
10
-28.995
20
-12.75
11
-42.995
21
-12.75
0
LINE
8
0
6
CONTINUOUS
10
-42.995
20
-12.75
11
-42.995
21
-26.75
0
LINE
8
0
6
CONTINUOUS
10
-17.745
20
-26.75
11
-3.745
21
-26.75
0
LINE
8
0
6
CONTINUOUS
10
-3.745
20
-26.75
11
-3.745
21
-12.75
0
LINE
8
0
6
CONTINUOUS
10
-3.745
20
-12.75
11
-17.745
21
-12.75
0
LINE
8
0
6
CONTINUOUS
10
-17.745
20
-12.75
11
-17.745
21
-26.75
0
LINE
8
0
6
CONTINUOUS
10
7.505
20
-26.75
11
21.505
21
-26.75
0
LINE
8
0
6
CONTINUOUS
10
21.505
20
-26.75
11
21.505
21
-12.75
0
LINE
8
0
6
CONTINUOUS
10
21.505
20
-12.75
11
7.505
21
-12.75
0
LINE
8
0
6
CONTINUOUS
10
7.505
20
-12.75
11
7.505
21
-26.75
0
LINE
8
0
6
CONTINUOUS
10
50.455
20
-26.75
11
64.455
21
-26.75
0
LINE
8
0
6
CONTINUOUS
10
64.455
20
-26.75
11
64.455
21
-12.75
0
LINE
8
0
6
CONTINUOUS
10
64.455
20
-12.75
11
50.455
21
-12.75
0
LINE
8
0
6
CONTINUOUS
10
50.455
20
-12.75
11
50.455
21
-26.75
0
CIRCLE
8
0
6
CONTINUOUS
10
0
20
0
40
1
0
CIRCLE
8
0
6
CONTINUOUS
10
0
20
19.75
40
1
0
CIRCLE
8
0
6
CONTINUOUS
10
0
20
39.5
40
1
0
CIRCLE
8
0
6
CONTINUOUS
10
0
20
59.25
40
1
0
CIRCLE
8
0
6
CONTINUOUS
10
19.75
20
3
40
1
0
CIRCLE
8
0
6
CONTINUOUS
10
19.75
20
22.75
40
1
0
CIRCLE
8
0
6
CONTINUOUS
10
19.75
20
42.5
40
1
0
CIRCLE
8
0
6
CONTINUOUS
10
19.75
20
62.25
40
1
0
CIRCLE
8
0
6
CONTINUOUS
10
39.5
20
6
40
1
0
CIRCLE
8
0
6
CONTINUOUS
10
39.5
20
25.75
40
1
0
CIRCLE
8
0
6
CONTINUOUS
10
39.5
20
45.5
40
1
0
CIRCLE
8
0
6
CONTINUOUS
10
39.5
20
65.25
40
1
0
CIRCLE
8
0
6
CONTINUOUS
10
59.25
20
3
40
1
0
CIRCLE
8
0
6
CONTINUOUS
10
59.25
20
22.75
40
1
0
CIRCLE
8
0
6
CONTINUOUS
10
59.25
20
42.5
40
1
0
CIRCLE
8
0
6
CONTINUOUS
10
59.25
20
62.25
40
1
0
CIRCLE
8
0
6
CONTINUOUS
10
79
20
0
40
1
0
CIRCLE
8
0
6
CONTINUOUS
10
79
20
19.75
40
1
0
CIRCLE
8
0
6
CONTINUOUS
10
79
20
39.5
40
1
0
CIRCLE
8
0
6
CONTINUOUS
10
79
20
59.25
40
1
0
CIRCLE
8
0
6
CONTINUOUS
10
-29.25
20
0
40
1
0
CIRCLE
8
0
6
CONTINUOUS
10
-29.25
20
19.75
40
1
0
CIRCLE
8
0
6
CONTINUOUS
10
-34
20
39.5
40
1
0
CIRCLE
8
0
6
CONTINUOUS
10
-19.75
20
59.25
40
1
0
CIRCLE
8
0
6
CONTINUOUS
10
-35.995
20
-19.75
40
1
0
CIRCLE
8
0
6
CONTINUOUS
10
-10.745
20
-19.75
40
1
0
CIRCLE
8
0
6
CONTINUOUS
10
14.505
20
-19.75
40
1
0
CIRCLE
8
0
6
CONTINUOUS
10
57.455
20
-19.75
40
1
0
ENDSEC
0
EOF