0
SECTION
2
HEADER
9
$INSUNITS
70
4
0
ENDSEC
0
SECTION
2
TABLES
0
TABLE
2
LTYPE
0
LTYPE
72
65
70
0
2
CONTINUOUS
3
______
73
0
40
0
0
LTYPE
72
65
70
0
2
DASHED
3
_ _ _ 
73
2
40
7.5
49
5
49
-2.5
0
LTYPE
72
65
70
0
2
DOTTED
3
. . . 
73
2
40
1.5
49
0.5
49
-1
0
ENDTAB
0
TABLE
2
LAYER
0
ENDTAB
0
ENDSEC
0
SECTION
2
ENTITIES
0
LINE
8
0
6
CONTINUOUS
10
260
20
-11.4989622
11
260
21
74.925
0
LINE
8
0
6
CONTINUOUS
10
258
20
76.925
11
120.5
21
76.925
0
LINE
8
0
6
CONTINUOUS
10
118.5
20
-29.25
11
118.5
21
74.925
0
LINE
8
0
6
CONTINUOUS
10
120.5
20
-31.25
11
258.0179736
21
-31.25
0
LINE
8
0
6
CONTINUOUS
10
260.0179726
20
-29.2479746
11
260.000001
21
-11.5009876
0
ARC
8
0
6
CONTINUOUS
10
258
20
74.925
40
2
50
0
51
90
0
ARC
8
0
6
CONTINUOUS
10
120.5
20
74.925
40
2
50
90
51
180
0
ARC
8
0
6
CONTINUOUS
10
120.5
20
-29.25
40
2
50
180
51
270
0
ARC
8
0
6
CONTINUOUS
10
258.0179736
20
-29.25
40
2
50
270
51
0.0580234
0
ARC
8
0
6
CONTINUOUS
10
262
20
-11.4989622
40
2
50
180
51
180.0580234
0
ENDSEC
0
EOF